<svg preserveAspectRatio="none" overflow="visible" style="display: block;" width="15.75" height="18" viewBox="0 0 15.75 18" fill="none" xmlns="http://www.w3.org/2000/svg">
<g id="Img">
<path id="Vector" d="M15.75 7.37965C14.2022 7.38335 12.6924 6.90066 11.4339 5.99977V12.2829C11.4334 13.4466 11.0778 14.5824 10.4144 15.5385C9.75097 16.4946 8.8115 17.2254 7.72157 17.6332C6.63164 18.0409 5.44321 18.1062 4.31517 17.8203C3.18714 17.5344 2.17328 16.9109 1.40916 16.0332C0.645033 15.1555 0.167073 14.0655 0.0391849 12.9088C-0.0887035 11.7522 0.139576 10.584 0.693499 9.56062C1.24742 8.53721 2.10059 7.70729 3.13891 7.18185C4.17723 6.65641 5.35123 6.46048 6.50391 6.62027V9.78047C5.97644 9.61456 5.41003 9.61955 4.88557 9.79475C4.36111 9.96995 3.90542 10.3064 3.58358 10.756C3.26173 11.2056 3.09019 11.7455 3.09344 12.2984C3.0967 12.8513 3.27459 13.3891 3.60171 13.8349C3.92883 14.2807 4.38845 14.6118 4.91494 14.7808C5.44143 14.9498 6.00785 14.9481 6.53333 14.776C7.05881 14.6039 7.51646 14.2701 7.84094 13.8224C8.16542 13.3747 8.34013 12.8358 8.34012 12.2829V0H11.4339C11.4317 0.26126 11.4536 0.522164 11.4993 0.779414C11.6068 1.35368 11.8303 1.89999 12.1562 2.38491C12.482 2.86983 12.9034 3.28317 13.3945 3.59965C14.0932 4.06163 14.9124 4.30787 15.75 4.3077V7.37965Z" fill="white"/>
</g>
</svg>
